<svg xmlns="http://www.w3.org/2000/svg" viewBox="0 0 593 178"><defs><style>.cls-1{fill:#5c5b5f;}.cls-2{fill:none;}</style></defs><title>logo</title><g id="Capa_1" data-name="Capa 1"><rect class="cls-1" x="153.74" y="156.13" width="4.2" height="4.52"/><rect class="cls-1" x="161" y="162.5" width="1.82" height="1.82"/><rect class="cls-1" x="159.31" y="158.39" width="0.85" height="0.85"/><rect class="cls-1" x="157.94" y="161.66" width="1.75" height="1.75"/><rect class="cls-1" x="163.75" y="166.01" width="1.36" height="1.36"/><rect class="cls-1" x="166.57" y="169.04" width="0.97" height="0.97"/><rect class="cls-1" x="123.79" y="192.17" width="4.2" height="5.13" transform="translate(325.45 5.35) rotate(92.75)"/><rect class="cls-1" x="141.03" y="197.26" width="1.82" height="2.06" transform="translate(345.82 -6.95) rotate(92.75)"/><rect class="cls-1" x="132.79" y="201.06" width="0.85" height="0.96" transform="translate(339.92 5.15) rotate(92.75)"/><rect class="cls-1" x="135" y="197.3" width="1.75" height="1.99" transform="translate(339.47 -0.91) rotate(92.75)"/><rect class="cls-1" x="138.39" y="201.21" width="1.36" height="1.55" transform="translate(346.5 -0.22) rotate(92.75)"/><rect class="cls-1" x="144.53" y="208.88" width="0.97" height="1.1" transform="translate(360.17 1.64) rotate(92.75)"/><rect class="cls-1" x="104.46" y="134.96" width="8.56" height="9.22"/><rect class="cls-1" x="119.28" y="147.97" width="3.7" height="3.7"/><rect class="cls-1" x="115.82" y="139.57" width="1.73" height="1.73"/><rect class="cls-1" x="113.02" y="146.24" width="3.58" height="3.58"/><rect class="cls-1" x="124.89" y="155.13" width="2.78" height="2.78"/><rect class="cls-1" x="130.63" y="161.3" width="1.97" height="1.97"/><path class="cls-1" d="M85.21,194.33c1.23.19,1.72.23,2.18.35,18.25,4.93,34.35,13.59,49.31,24.25h2.41v1.74l1.57,1.16V217.4h4c-1.11-.86-2.21-1.74-3.34-2.58h-.63v-.49c-1.3-1-2.65-1.86-4-2.78h-1.1v-.77a167.41,167.41,0,0,0-50.89-23.49c12.88-.92,24.41-.43,35.64,3.61-5.55-5-12.34-6.64-19.29-7.83-9-1.55-18.12-1.33-27.23-1.13-5.2.11-6.67-.62-8.63-3.88,7-2.9,14.58-4.58,21.89-9.25-5.58-.51-10.44,1-15.33-1.27,5.3-4.47,10.26-8.46,15-12.69,7.72-6.89,10.24-10.4,11-14.59C80.42,154.76,76.6,156.8,71.35,154.32c18.41-13.94,27.79-25.09,27.48-33.47A71.86,71.86,0,0,1,68.5,147.41c12.9-21,20.43-41.78,15.3-65.68-.55.47-.91.63-1,.9a8.92,8.92,0,0,0-.52,1.93c-3.55,23.87-12,44.76-34.22,57.61-4.05,2.34-6.07,6.39-6.66,11.31-2,16.36-6.35,20.67-22.85,23.63-4.14.74-8.23,1.76-11.52,4.69-.67.59-1.26,1.23-.89,2.14.52,1.31,1.36.12,2,.13a13.12,13.12,0,0,1,9.34,4.29A20.1,20.1,0,0,0,24.63,193a50.61,50.61,0,0,0,28.75,2.5,8.89,8.89,0,0,1,6.69,1c7.55,4.35,14.49,9.41,20,16.34-1.85-7.17-6.21-12.63-11.53-17.69a50.56,50.56,0,0,1,30.77,20.31c-.15-5-2.88-8.16-5-11.61C92.11,200.27,88.51,197.88,85.21,194.33Zm51.48,19.16h2.42v2.66h-2.42Zm-4.84-1.33h2.42v2.66h-2.42Z" transform="translate(-1 -73)"/><path class="cls-1" d="M150.51,222.19c-1.86-1.57-3.72-3.13-5.63-4.62v4.35h-4.09c3.29,2.46,6.52,5,9.72,7.66Zm-3.88,2.49h-1.75v-1.75h1.75Zm.46-4.17h-.85v-.85h.85Zm.85,5.08v-1.82h1.82v1.82Z" transform="translate(-1 -73)"/><rect class="cls-1" x="148.11" y="152.91" width="4.94" height="4.1"/><rect class="cls-1" x="149.51" y="154.24" width="2.73" height="2.54"/><rect id="_Tranche_" data-name="&lt;Tranche&gt;" class="cls-2" width="593" height="178"/></g><g id="xx"><path class="cls-1" d="M149.25,192.19V121.8h2.35v68.05h41.46v2.35Z" transform="translate(-1 -73)"/><path class="cls-1" d="M220.45,131.5a2,2,0,1,0-1.37-.59A1.88,1.88,0,0,0,220.45,131.5Z" transform="translate(-1 -73)"/><path class="cls-1" d="M243.45,145.26h2.82l23.47,44.43,23.47-44.43H296l-25.11,46.93h-2.35Z" transform="translate(-1 -73)"/><path class="cls-1" d="M328.13,189.85q8.45,0,12.67-3.21a26.77,26.77,0,0,0,6.73-7.27l1.88,1.25a27,27,0,0,1-7.2,8q-4.69,3.6-14.08,3.6a23.23,23.23,0,0,1-16.43-39.89,23.47,23.47,0,0,1,39.89,16.43H307a21.65,21.65,0,0,0,21.12,21.12Zm-21-23.47H349.1q.16-6.1-6.18-12.44a20.42,20.42,0,0,0-29.57,0Q307,160.28,307.17,166.38Z" transform="translate(-1 -73)"/><path class="cls-1" d="M406.08,192.19V168.73a21.73,21.73,0,0,0-5.55-14.78,17.83,17.83,0,0,0-14-6.34A24.7,24.7,0,0,0,374,150.5a25.9,25.9,0,0,0-7,5.4v36.29h-2.35V145.26H367v7.82a32.89,32.89,0,0,1,6.57-5q4.54-2.82,13-2.82a20.07,20.07,0,0,1,15.64,7,24,24,0,0,1,6.26,16.43v23.47Z" transform="translate(-1 -73)"/><path class="cls-1" d="M444.92,189.85q8.45,0,12.67-3.21a26.77,26.77,0,0,0,6.73-7.27l1.88,1.25a27,27,0,0,1-7.2,8q-4.69,3.6-14.08,3.6A23.23,23.23,0,0,1,428.5,152.3a23.47,23.47,0,0,1,39.89,16.43H423.81a21.65,21.65,0,0,0,21.12,21.12Zm-21-23.47h41.93q.16-6.1-6.18-12.44a20.42,20.42,0,0,0-29.57,0Q423.81,160.28,424,166.38Z" transform="translate(-1 -73)"/><path class="cls-1" d="M477,145.26h2.82l23.47,22.06,23.47-22.06h2.82l-24.87,23.47,24.87,23.47h-2.82l-23.47-22.06-23.47,22.06H477l24.87-23.47Z" transform="translate(-1 -73)"/><path class="cls-1" d="M535.44,145.26h2.82l23.47,22.06,23.47-22.06H588l-24.87,23.47L588,192.19h-2.82l-23.47-22.06-23.47,22.06h-2.82l24.87-23.47Z" transform="translate(-1 -73)"/><path class="cls-1" d="M221.62,189.85V145.26h-2.29v46.93h2.23q0-1.17.13-2.35Z" transform="translate(-1 -73)"/></g></svg>